<?xml version="1.0" encoding="utf-8" ?>
<svg baseProfile="full" height="900" version="1.1" width="1700" xmlns="http://www.w3.org/2000/svg" xmlns:ev="http://www.w3.org/2001/xml-events" xmlns:xlink="http://www.w3.org/1999/xlink"><defs><linearGradient id="bgGrad" x1="0%" x2="0%" y1="0%" y2="100%"><stop offset="0%" stop-color="#ffffff" /><stop offset="100%" stop-color="#f8f9fa" /></linearGradient><marker id="arrowhead" markerHeight="8" markerWidth="10" orient="auto" refX="10" refY="4.0"><polygon fill="#37474f" points="0,0 10,4.0 0,8" /></marker><marker id="arrowhead_37474f" markerHeight="8" markerWidth="10" orient="auto" refX="10" refY="4.0"><polygon fill="#37474f" points="0,0 10,4.0 0,8" /></marker></defs><g><rect fill="#e1bee7" height="60" rx="12" ry="12" stroke="none" width="234.28571428571428" x="873.4285714285713" y="50" /><text fill="#333333" font-family="Arial, Helvetica, sans-serif" font-size="18" font-weight="bold" text-anchor="middle" x="990.5714285714284" y="73.6">4. (Optional) RAGShield
Retrieval</text><text fill="#333333" font-family="Arial, Helvetica, sans-serif" font-size="18" font-weight="bold" text-anchor="middle" x="990.5714285714284" y="97.0">Filtering</text></g><g><rect fill="#ffffff" filter="url(#dropShadow)" height="600" rx="8" ry="8" stroke="#b0bec5" stroke-width="2" width="234.28571428571428" x="873.4285714285713" y="140" /></g><g><rect fill="#f3e5f5" height="75" rx="8" ry="8" stroke="#9c27b0" stroke-width="2" width="204.28571428571428" x="888.4285714285713" y="165" /></g><g transform="translate(903.4285714285713, 182.5) scale(0.4)"><path d="M 50,10 L 15,25 L 15,50 C 15,75 50,95 50,95 C 50,95 85,75 85,50 L 85,25 Z" fill="#fff" stroke="#9c27b0" stroke-linejoin="round" stroke-width="6" /><path d="M 35,50 L 45,60 L 65,35" fill="none" stroke="#9c27b0" stroke-linecap="round" stroke-linejoin="round" stroke-width="6" /></g><text fill="#666666" font-family="Arial, Helvetica, sans-serif" font-size="12" font-weight="normal" text-anchor="start" x="958.4285714285713" y="199.1">Instruction</text><text fill="#666666" font-family="Arial, Helvetica, sans-serif" font-size="12" font-weight="normal" text-anchor="start" x="958.4285714285713" y="214.7">Detector
(Heuristic /</text><text fill="#666666" font-family="Arial, Helvetica, sans-serif" font-size="12" font-weight="normal" text-anchor="start" x="958.4285714285713" y="230.3">LLM-based)</text><g><rect fill="#f3e5f5" height="75" rx="8" ry="8" stroke="#9c27b0" stroke-width="2" width="204.28571428571428" x="888.4285714285713" y="275" /></g><g transform="translate(903.4285714285713, 292.5) scale(0.4)"><circle cx="50" cy="35" fill="#fff" r="15" stroke="#9c27b0" stroke-width="6" /><path d="M 25,90 C 25,60 75,60 75,90" fill="#fff" stroke="#9c27b0" stroke-linecap="round" stroke-width="6" /></g><text fill="#666666" font-family="Arial, Helvetica, sans-serif" font-size="12" font-weight="normal" text-anchor="start" x="958.4285714285713" y="316.9">Semantic Consensus
(Embedding</text><text fill="#666666" font-family="Arial, Helvetica, sans-serif" font-size="12" font-weight="normal" text-anchor="start" x="958.4285714285713" y="332.5">Similarity)</text><path d="M 990.5714285714284,245 L 990.5714285714284,270" fill="none" marker-end="url(#arrowhead_37474f)" stroke="#37474f" stroke-width="2" /><g><rect fill="#f3e5f5" height="75" rx="8" ry="8" stroke="#9c27b0" stroke-width="2" width="204.28571428571428" x="888.4285714285713" y="385" /></g><g transform="translate(903.4285714285713, 402.5) scale(0.4)"><path d="M 15,70 A 35,35 0 0,1 85,70" fill="none" stroke="#9c27b0" stroke-linecap="round" stroke-width="8" /><circle cx="50" cy="70" fill="#9c27b0" r="8" /><line stroke="#9c27b0" stroke-linecap="round" stroke-width="6" x1="50" x2="25" y1="70" y2="45" /></g><text fill="#666666" font-family="Arial, Helvetica, sans-serif" font-size="12" font-weight="normal" text-anchor="start" x="958.4285714285713" y="426.9">Trust Scoring
(Retrieval</text><text fill="#666666" font-family="Arial, Helvetica, sans-serif" font-size="12" font-weight="normal" text-anchor="start" x="958.4285714285713" y="442.5">Trust Index)</text><path d="M 990.5714285714284,355 L 990.5714285714284,380" fill="none" marker-end="url(#arrowhead_37474f)" stroke="#37474f" stroke-width="2" /><g><rect fill="#f3e5f5" height="75" rx="8" ry="8" stroke="#9c27b0" stroke-width="2" width="204.28571428571428" x="888.4285714285713" y="495" /></g><g transform="translate(903.4285714285713, 512.5) scale(0.4)"><path d="M 10,20 L 90,20 L 60,55 L 60,85 L 40,95 L 40,55 Z" fill="#fff" stroke="#9c27b0" stroke-linejoin="round" stroke-width="6" /></g><text fill="#666666" font-family="Arial, Helvetica, sans-serif" font-size="12" font-weight="normal" text-anchor="start" x="958.4285714285713" y="536.9">Re-ranking &amp;</text><text fill="#666666" font-family="Arial, Helvetica, sans-serif" font-size="12" font-weight="normal" text-anchor="start" x="958.4285714285713" y="552.5">Filtering
(Threshold τ)</text><path d="M 990.5714285714284,465 L 990.5714285714284,490" fill="none" marker-end="url(#arrowhead_37474f)" stroke="#37474f" stroke-width="2" /><g><rect fill="#e8f5e9" height="75" rx="8" ry="8" stroke="#4caf50" stroke-width="2" width="204.28571428571428" x="888.4285714285713" y="605" /></g><g transform="translate(903.4285714285713, 622.5) scale(0.4)"><path d="M 20,10 L 60,10 L 80,30 L 80,90 L 20,90 Z" fill="#fff" stroke="#4caf50" stroke-linejoin="round" stroke-width="6" /><path d="M 60,10 L 60,30 L 80,30" fill="none" stroke="#4caf50" stroke-linejoin="round" stroke-width="6" /><line stroke="#4caf50" stroke-linecap="round" stroke-width="4" x1="35" x2="65" y1="45" y2="45" /><line stroke="#4caf50" stroke-linecap="round" stroke-width="4" x1="35" x2="65" y1="60" y2="60" /><line stroke="#4caf50" stroke-linecap="round" stroke-width="4" x1="35" x2="50" y1="75" y2="75" /><circle cx="75" cy="80" fill="#4caf50" r="12" stroke="#ffffff" stroke-width="2" /><path d="M 69,80 L 73,84 L 81,75" fill="none" stroke="#ffffff" stroke-linecap="round" stroke-linejoin="round" stroke-width="3" /></g><text fill="#666666" font-family="Arial, Helvetica, sans-serif" font-size="12" font-weight="normal" text-anchor="start" x="958.4285714285713" y="646.9">Sanitized Context
(Filtered</text><text fill="#666666" font-family="Arial, Helvetica, sans-serif" font-size="12" font-weight="normal" text-anchor="start" x="958.4285714285713" y="662.5">Chunks)</text><path d="M 990.5714285714284,575 L 990.5714285714284,600" fill="none" marker-end="url(#arrowhead_37474f)" stroke="#37474f" stroke-width="2" /></svg>